<svg xmlns="http://www.w3.org/2000/svg" version="1.1" xmlns:xlink="http://www.w3.org/1999/xlink" xmlns:svgjs="http://svgjs.com/svgjs" width="100%" height="300"><svg version="1.1" id="SvgjsSvg1000" xmlns="http://www.w3.org/2000/svg" xmlns:xlink="http://www.w3.org/1999/xlink" x="0px" y="0px" width="100%" viewBox="0 0 300 300" enable-background="new 0 0 300 300" xml:space="preserve">
<path fill="#333391" opacity="1.000000" stroke="none" d="
M145.000000,301.000000 
	C96.666672,301.000000 48.833351,301.000000 1.000019,301.000000 
	C1.000013,201.000031 1.000013,101.000053 1.000006,1.000060 
	C100.999962,1.000040 200.999924,1.000040 300.999908,1.000020 
	C300.999939,100.999939 300.999939,200.999878 300.999969,300.999908 
	C249.166672,301.000000 197.333328,301.000000 145.000000,301.000000 
M113.231415,208.195053 
	C113.517555,208.470718 113.803696,208.746368 114.145866,209.846802 
	C112.395584,219.094498 110.645302,228.342209 108.849960,237.827972 
	C103.499771,237.827972 98.712624,237.827972 93.794655,237.827972 
	C93.794655,245.210098 93.794655,252.219650 93.794655,259.167572 
	C111.955482,259.167572 129.681564,259.167572 147.409210,259.167572 
	C147.409210,251.903427 147.409210,245.001038 147.409210,237.724609 
	C142.124664,237.724609 137.171112,237.724609 131.435898,237.724609 
	C133.426926,228.146729 135.311172,219.082428 137.850952,209.736526 
	C139.983185,208.810181 142.091614,207.154709 144.251770,207.084213 
	C153.407257,206.785446 162.581558,206.820724 171.740952,207.052124 
	C174.076843,207.111130 176.383224,208.337296 179.003952,209.777618 
	C181.127686,218.973343 183.251404,228.169052 185.502441,237.915955 
	C179.862595,237.915955 175.411377,237.915955 170.819656,237.915955 
	C170.819656,245.105942 170.819656,251.970459 170.819656,258.820740 
	C188.570053,258.820740 205.946701,258.820740 223.524673,258.820740 
	C223.524673,251.775085 223.524673,245.042374 223.524673,237.771271 
	C219.507568,237.771271 215.705322,238.011932 211.962723,237.644638 
	C210.597122,237.510620 208.565170,236.168594 208.213348,234.972778 
	C205.497177,225.740692 203.118774,216.409195 201.246674,206.618423 
	C201.560150,206.201935 201.873611,205.785446 203.078827,205.158981 
	C211.323746,205.158981 219.568649,205.158981 227.797668,205.158981 
	C227.797668,187.821686 227.797668,171.224045 227.797668,154.486328 
	C220.151321,154.486328 212.772491,154.486328 204.962921,154.486328 
	C204.962921,164.610626 204.962921,174.383133 204.962921,184.071869 
	C195.700455,185.544357 195.730637,185.537094 193.788803,177.461273 
	C187.483749,151.239441 181.094543,125.037537 174.909042,98.787590 
	C174.116852,95.425735 172.853180,94.156090 169.277039,94.322502 
	C162.460159,94.639709 155.607574,94.639534 148.790649,94.322701 
	C145.209015,94.156235 143.981430,95.433640 143.188995,98.797852 
	C136.967834,125.208748 130.543091,151.571686 124.178696,177.948822 
	C122.496819,184.919373 122.492699,184.924530 115.437637,184.609421 
	C114.788475,184.580414 114.145653,184.409363 113.322205,184.275360 
	C113.322205,142.829727 113.322205,101.459846 113.322205,59.581398 
	C118.766090,59.581398 123.851570,59.581398 128.795959,59.581398 
	C128.795959,52.844521 128.795959,46.625973 128.795959,40.406010 
	C111.766983,40.406010 95.167389,40.406010 78.304993,40.406010 
	C78.304993,47.056862 78.304993,53.463280 78.304993,60.433556 
	C82.871872,60.433556 87.296135,60.433556 91.906036,60.433556 
	C91.906036,102.064384 91.906036,143.133041 91.906036,184.679977 
	C87.198479,184.679977 82.759323,184.679977 78.281403,184.679977 
	C78.281403,192.425919 78.281403,199.690826 78.281403,207.693909 
	C89.979553,207.693909 101.441162,207.693909 113.231415,208.195053 
z"></path>
<path fill="#FCFCFD" opacity="1.000000" stroke="none" d="
M137.195435,210.018127 
	C135.311172,219.082428 133.426926,228.146729 131.435898,237.724609 
	C137.171112,237.724609 142.124664,237.724609 147.409210,237.724609 
	C147.409210,245.001038 147.409210,251.903427 147.409210,259.167572 
	C129.681564,259.167572 111.955482,259.167572 93.794655,259.167572 
	C93.794655,252.219650 93.794655,245.210098 93.794655,237.827972 
	C98.712624,237.827972 103.499771,237.827972 108.849960,237.827972 
	C110.645302,228.342209 112.395584,219.094498 114.166054,209.050430 
	C113.758423,208.067337 113.330605,207.880615 112.902779,207.693909 
	C101.441162,207.693909 89.979553,207.693909 78.281403,207.693909 
	C78.281403,199.690826 78.281403,192.425919 78.281403,184.679977 
	C82.759323,184.679977 87.198479,184.679977 91.906036,184.679977 
	C91.906036,143.133041 91.906036,102.064384 91.906036,60.433556 
	C87.296135,60.433556 82.871872,60.433556 78.304993,60.433556 
	C78.304993,53.463280 78.304993,47.056862 78.304993,40.406010 
	C95.167389,40.406010 111.766983,40.406010 128.795959,40.406010 
	C128.795959,46.625973 128.795959,52.844521 128.795959,59.581398 
	C123.851570,59.581398 118.766090,59.581398 113.322205,59.581398 
	C113.322205,101.459846 113.322205,142.829727 113.322205,184.275360 
	C114.145653,184.409363 114.788475,184.580414 115.437637,184.609421 
	C122.492699,184.924530 122.496819,184.919373 124.178696,177.948822 
	C130.543091,151.571686 136.967834,125.208748 143.188995,98.797852 
	C143.981430,95.433640 145.209015,94.156235 148.790649,94.322701 
	C155.607574,94.639534 162.460159,94.639709 169.277039,94.322502 
	C172.853180,94.156090 174.116852,95.425735 174.909042,98.787590 
	C181.094543,125.037537 187.483749,151.239441 193.788803,177.461273 
	C195.730637,185.537094 195.700455,185.544357 204.962921,184.071869 
	C204.962921,174.383133 204.962921,164.610626 204.962921,154.486328 
	C212.772491,154.486328 220.151321,154.486328 227.797668,154.486328 
	C227.797668,171.224045 227.797668,187.821686 227.797668,205.158981 
	C219.568649,205.158981 211.323746,205.158981 202.107422,205.255829 
	C200.969238,205.937973 200.802460,206.523239 200.635681,207.108521 
	C203.118774,216.409195 205.497177,225.740692 208.213348,234.972778 
	C208.565170,236.168594 210.597122,237.510620 211.962723,237.644638 
	C215.705322,238.011932 219.507568,237.771271 223.524673,237.771271 
	C223.524673,245.042374 223.524673,251.775085 223.524673,258.820740 
	C205.946701,258.820740 188.570053,258.820740 170.819656,258.820740 
	C170.819656,251.970459 170.819656,245.105942 170.819656,237.915955 
	C175.411377,237.915955 179.862595,237.915955 185.502441,237.915955 
	C183.251404,228.169052 181.127686,218.973343 178.857162,209.005875 
	C177.568176,207.178680 176.442261,205.226776 175.281311,205.205734 
	C163.001251,204.983002 150.715622,205.067749 138.056717,205.067749 
	C137.748581,206.838760 137.472000,208.428436 137.195435,210.018127 
M172.534317,183.627930 
	C172.950378,183.070404 173.366425,182.512863 173.735794,181.189301 
	C169.186417,160.806107 164.637024,140.422928 160.087631,120.039742 
	C159.736862,120.052254 159.386078,120.064774 159.035309,120.077286 
	C153.921494,140.995880 148.807678,161.914490 143.558853,183.385422 
	C153.405548,183.385422 162.655777,183.385422 172.534317,183.627930 
z"></path>
<path fill="#434299" opacity="1.000000" stroke="none" d="
M137.523193,209.877319 
	C137.472000,208.428436 137.748581,206.838760 138.056717,205.067749 
	C150.715622,205.067749 163.001251,204.983002 175.281311,205.205734 
	C176.442261,205.226776 177.568176,207.178680 178.706772,208.630676 
	C176.383224,208.337296 174.076843,207.111130 171.740952,207.052124 
	C162.581558,206.820724 153.407257,206.785446 144.251770,207.084213 
	C142.091614,207.154709 139.983185,208.810181 137.523193,209.877319 
z"></path>
<path fill="#29298B" opacity="1.000000" stroke="none" d="
M200.941162,206.863464 
	C200.802460,206.523239 200.969238,205.937973 201.661545,205.360809 
	C201.873611,205.785446 201.560150,206.201935 200.941162,206.863464 
z"></path>
<path fill="#232388" opacity="1.000000" stroke="none" d="
M113.067093,207.944489 
	C113.330605,207.880615 113.758423,208.067337 114.138046,208.638031 
	C113.803696,208.746368 113.517555,208.470718 113.067093,207.944489 
z"></path>
<path fill="#363693" opacity="1.000000" stroke="none" d="
M171.906021,183.385422 
	C162.655777,183.385422 153.405548,183.385422 143.558853,183.385422 
	C148.807678,161.914490 153.921494,140.995880 159.035309,120.077286 
	C159.386078,120.064774 159.736862,120.052254 160.087631,120.039742 
	C164.637024,140.422928 169.186417,160.806107 173.528473,181.648529 
	C172.849426,182.533630 172.377731,182.959534 171.906021,183.385422 
z"></path>
<path fill="#5958A6" opacity="1.000000" stroke="none" d="
M172.220169,183.506683 
	C172.377731,182.959534 172.849426,182.533630 173.551819,182.031540 
	C173.366425,182.512863 172.950378,183.070404 172.220169,183.506683 
z"></path>
</svg><style>@media (prefers-color-scheme: light) { :root { filter: none; } }
</style></svg>